<mxfile host="app.diagrams.net" modified="2022-07-04T08:53:44.474Z" agent="5.0 (Windows NT 10.0; Win64; x64) AppleWebKit/537.36 (KHTML, like Gecko) Chrome/102.0.5005.115 Safari/537.36 OPR/88.0.4412.53" etag="dNtV1hMijp9VitCJ8EHM" version="20.0.4" type="github">
  <diagram id="IU8xrknCbxoS3MElJnr0" name="Page-1">
    <mxGraphModel dx="571" dy="333" grid="1" gridSize="10" guides="1" tooltips="1" connect="1" arrows="1" fold="1" page="1" pageScale="1" pageWidth="850" pageHeight="1100" math="0" shadow="0">
      <root>
        <mxCell id="0" />
        <mxCell id="1" parent="0" />
        <mxCell id="jsvPGye7oXgWOegGbczx-1" value="form login&amp;nbsp;" style="html=1;" parent="1" vertex="1">
          <mxGeometry x="340" y="120" width="110" height="50" as="geometry" />
        </mxCell>
        <mxCell id="jsvPGye7oXgWOegGbczx-2" value="data login&amp;nbsp;" style="html=1;" parent="1" vertex="1">
          <mxGeometry x="500" y="120" width="110" height="50" as="geometry" />
        </mxCell>
        <mxCell id="jsvPGye7oXgWOegGbczx-11" value="" style="edgeStyle=orthogonalEdgeStyle;rounded=0;orthogonalLoop=1;jettySize=auto;html=1;entryX=-0.2;entryY=0.025;entryDx=0;entryDy=0;entryPerimeter=0;" parent="1" source="jsvPGye7oXgWOegGbczx-3" target="jsvPGye7oXgWOegGbczx-6" edge="1">
          <mxGeometry relative="1" as="geometry">
            <mxPoint x="210" y="320" as="targetPoint" />
            <Array as="points">
              <mxPoint x="190" y="282" />
              <mxPoint x="190" y="282" />
            </Array>
          </mxGeometry>
        </mxCell>
        <mxCell id="jsvPGye7oXgWOegGbczx-3" value="" style="html=1;points=[];perimeter=orthogonalPerimeter;" parent="1" vertex="1">
          <mxGeometry x="120" y="280" width="10" height="80" as="geometry" />
        </mxCell>
        <mxCell id="jsvPGye7oXgWOegGbczx-4" value="alumni /admin" style="shape=umlActor;verticalLabelPosition=bottom;verticalAlign=top;html=1;outlineConnect=0;" parent="1" vertex="1">
          <mxGeometry x="110" y="150" width="30" height="60" as="geometry" />
        </mxCell>
        <mxCell id="jsvPGye7oXgWOegGbczx-19" value="" style="edgeStyle=orthogonalEdgeStyle;rounded=0;orthogonalLoop=1;jettySize=auto;html=1;exitX=1.133;exitY=0.883;exitDx=0;exitDy=0;exitPerimeter=0;" parent="1" source="jsvPGye7oXgWOegGbczx-6" edge="1">
          <mxGeometry relative="1" as="geometry">
            <mxPoint x="380" y="350" as="sourcePoint" />
            <mxPoint x="550" y="350" as="targetPoint" />
            <Array as="points">
              <mxPoint x="528" y="351" />
            </Array>
          </mxGeometry>
        </mxCell>
        <mxCell id="jsvPGye7oXgWOegGbczx-6" value="" style="html=1;points=[];perimeter=orthogonalPerimeter;" parent="1" vertex="1">
          <mxGeometry x="390" y="280" width="10" height="80" as="geometry" />
        </mxCell>
        <mxCell id="XHELWwouJJqFz9ElyGaS-2" value="" style="edgeStyle=orthogonalEdgeStyle;rounded=0;orthogonalLoop=1;jettySize=auto;html=1;entryX=1.012;entryY=0.659;entryDx=0;entryDy=0;entryPerimeter=0;" edge="1" parent="1" target="jsvPGye7oXgWOegGbczx-9">
          <mxGeometry relative="1" as="geometry">
            <mxPoint x="560" y="376" as="sourcePoint" />
            <mxPoint x="584.9999999999998" y="370" as="targetPoint" />
            <Array as="points">
              <mxPoint x="600" y="376" />
              <mxPoint x="600" y="453" />
            </Array>
          </mxGeometry>
        </mxCell>
        <mxCell id="jsvPGye7oXgWOegGbczx-7" value="" style="html=1;points=[];perimeter=orthogonalPerimeter;" parent="1" vertex="1">
          <mxGeometry x="550" y="330" width="10" height="80" as="geometry" />
        </mxCell>
        <mxCell id="jsvPGye7oXgWOegGbczx-8" value="" style="html=1;points=[];perimeter=orthogonalPerimeter;" parent="1" vertex="1">
          <mxGeometry x="120" y="440" width="10" height="40" as="geometry" />
        </mxCell>
        <mxCell id="jsvPGye7oXgWOegGbczx-17" value="" style="edgeStyle=orthogonalEdgeStyle;rounded=0;orthogonalLoop=1;jettySize=auto;html=1;entryX=1.157;entryY=0.043;entryDx=0;entryDy=0;entryPerimeter=0;" parent="1" source="jsvPGye7oXgWOegGbczx-9" target="jsvPGye7oXgWOegGbczx-8" edge="1">
          <mxGeometry relative="1" as="geometry">
            <mxPoint x="525" y="450" as="targetPoint" />
            <Array as="points">
              <mxPoint x="440" y="442" />
              <mxPoint x="440" y="442" />
            </Array>
          </mxGeometry>
        </mxCell>
        <mxCell id="jsvPGye7oXgWOegGbczx-9" value="" style="html=1;points=[];perimeter=orthogonalPerimeter;" parent="1" vertex="1">
          <mxGeometry x="550" y="440" width="10" height="20" as="geometry" />
        </mxCell>
      </root>
    </mxGraphModel>
  </diagram>
</mxfile>
